<svg width="20" height="20" viewBox="0 0 20 20" fill="none" xmlns="http://www.w3.org/2000/svg">
<mask id="mask0_109_3207" style="mask-type:alpha" maskUnits="userSpaceOnUse" x="0" y="0" width="20" height="20">
<rect width="20" height="20" fill="#D9D9D9"/>
</mask>
<g mask="url(#mask0_109_3207)">
<path d="M1.67188 20V17.5001H18.3385V20H1.67188ZM5.00521 13.6779H6.03565L12.9524 6.77405L12.4283 6.24198L11.9091 5.73078L5.00521 12.6475V13.6779ZM3.75523 14.9279V12.1154L13.0966 2.7869C13.2173 2.66618 13.3543 2.57484 13.5076 2.51288C13.6609 2.45091 13.8204 2.41992 13.9861 2.41992C14.1518 2.41992 14.3124 2.45091 14.4677 2.51288C14.623 2.57484 14.7653 2.67046 14.8946 2.79973L15.8962 3.81415C16.0255 3.93487 16.119 4.07312 16.1766 4.2289C16.2343 4.38469 16.2632 4.54567 16.2632 4.71184C16.2632 4.86763 16.2339 5.0226 16.1754 5.17676C16.1169 5.33091 16.0239 5.47178 15.8962 5.59936L6.56769 14.9279H3.75523ZM12.9524 6.77405L12.4283 6.24198L11.9091 5.73078L12.9524 6.77405Z" fill="#3475F1"/>
</g>
</svg>
