<svg width="22" height="22" viewBox="0 0 22 22" fill="none" xmlns="http://www.w3.org/2000/svg">
<mask id="mask0_299_6955" style="mask-type:alpha" maskUnits="userSpaceOnUse" x="0" y="0" width="22" height="22">
<rect width="22" height="22" fill="#D9D9D9"/>
</mask>
<g mask="url(#mask0_299_6955)">
<path d="M21.4881 22C18.9477 22 16.3955 21.433 13.8316 20.2989C11.2678 19.1648 8.91222 17.5651 6.7648 15.4996C4.6176 13.434 2.95333 11.1726 1.772 8.71524C0.590666 6.25814 0 3.81021 0 1.37144C0 0.97954 0.134804 0.65299 0.404412 0.391794C0.67402 0.130598 1.01103 0 1.41544 0H5.81207C6.15245 0 6.45273 0.106657 6.7129 0.319971C6.97307 0.533069 7.13854 0.796422 7.20931 1.11003L7.98208 4.91765C8.03555 5.27094 8.02432 5.57452 7.94838 5.82838C7.87221 6.08225 7.73561 6.29545 7.53857 6.468L4.42528 9.3775C4.9263 10.2584 5.49876 11.0917 6.14268 11.8774C6.78637 12.6629 7.4833 13.4132 8.23349 14.1282C8.97311 14.8385 9.75947 15.498 10.5926 16.1069C11.4256 16.7158 12.3252 17.2824 13.2913 17.8067L16.3163 14.8775C16.5273 14.6668 16.7828 14.519 17.0827 14.4343C17.3824 14.3497 17.6939 14.329 18.0172 14.3721L21.7604 15.104C22.1008 15.1902 22.3786 15.357 22.5938 15.6041C22.809 15.8513 22.9167 16.1317 22.9167 16.4453V20.6412C22.9167 21.0294 22.7806 21.3529 22.5085 21.6118C22.2365 21.8706 21.8963 22 21.4881 22ZM3.4685 7.54082L5.87442 5.3308C5.91755 5.29758 5.94564 5.25196 5.95867 5.19394C5.9717 5.13592 5.96957 5.082 5.95227 5.03218L5.36621 2.14015C5.34891 2.07393 5.31869 2.02421 5.27555 1.991C5.23241 1.95778 5.17625 1.94118 5.10705 1.94118H2.22426C2.17236 1.94118 2.12912 1.95778 2.09452 1.991C2.06014 2.02421 2.04295 2.06574 2.04295 2.11556C2.11193 2.99987 2.26268 3.89821 2.49522 4.81056C2.72753 5.72313 3.05196 6.63322 3.4685 7.54082ZM15.1964 18.7249C16.09 19.1248 17.0219 19.4305 17.9923 19.6421C18.9629 19.8535 19.8698 19.9791 20.713 20.019C20.7649 20.019 20.8081 20.0024 20.8427 19.9692C20.8773 19.936 20.8946 19.8945 20.8946 19.8446V17.1221C20.8946 17.0557 20.8773 17.0018 20.8427 16.9604C20.8081 16.919 20.7563 16.89 20.6873 16.8734L17.8565 16.3208C17.8046 16.3042 17.7592 16.3021 17.7203 16.3146C17.6814 16.3271 17.6403 16.3541 17.597 16.3955L15.1964 18.7249Z" fill="#222222"/>
</g>
</svg>
