<svg width="31" height="31" viewBox="0 0 31 31" fill="none" xmlns="http://www.w3.org/2000/svg">
<mask id="mask0_945_968" style="mask-type:alpha" maskUnits="userSpaceOnUse" x="0" y="0" width="31" height="31">
<rect x="0.5" y="0.5" width="30" height="30" fill="#D9D9D9"/>
</mask>
<g mask="url(#mask0_945_968)">
<path d="M3.62543 25.4999V16.4615H12.6639V25.4999H3.62543ZM8.38512 12.3749L14.3948 2.51929L20.4042 12.3749H8.38512ZM27.4932 28.4902L24.2048 25.2018C23.7913 25.5014 23.3373 25.7301 22.8429 25.888C22.3486 26.046 21.8242 26.1249 21.2698 26.1249C19.8354 26.1249 18.6195 25.6261 17.622 24.6283C16.6243 23.6308 16.1254 22.4149 16.1254 20.9805C16.1254 19.5464 16.6243 18.3304 17.622 17.3327C18.6195 16.3352 19.8354 15.8365 21.2698 15.8365C22.704 15.8365 23.9199 16.3352 24.9176 17.3327C25.9151 18.3304 26.4139 19.5464 26.4139 20.9805C26.4139 21.5222 26.3349 22.0382 26.177 22.5287C26.0193 23.0191 25.801 23.4711 25.522 23.8846L28.8104 27.173L27.4932 28.4902ZM21.2698 24.2499C22.1848 24.2499 22.9585 23.9338 23.5907 23.3015C24.2228 22.6694 24.5389 21.8957 24.5389 20.9805C24.5389 20.0655 24.2228 19.2919 23.5907 18.6596C22.9585 18.0275 22.1848 17.7115 21.2698 17.7115C20.3546 17.7115 19.581 18.0275 18.9489 18.6596C18.3166 19.2919 18.0004 20.0655 18.0004 20.9805C18.0004 21.8957 18.3166 22.6694 18.9489 23.3015C19.581 23.9338 20.3546 24.2499 21.2698 24.2499Z" fill="#3475F1"/>
</g>
</svg>
