<svg width="18" height="18" viewBox="0 0 18 18" fill="none" xmlns="http://www.w3.org/2000/svg">
<path d="M8.37885 16.452C7.75101 15.9481 1.92084 10.2785 1.85567 10.2165C1.59818 9.95899 1.43605 9.69196 1.39155 9.44718C1.34545 9.19286 1.42334 8.97034 1.62997 8.7637C1.82229 8.57138 2.05753 8.46965 2.31026 8.46965C2.61862 8.46965 2.93492 8.61588 3.19877 8.88133L5.84206 11.4213C5.88815 11.4658 5.94855 11.4881 6.00736 11.4881C6.06935 11.4881 6.12975 11.4642 6.17585 11.4181C6.26804 11.3259 6.26804 11.1765 6.17744 11.0843L1.9574 6.726C1.5346 6.3032 1.33591 5.65629 1.83819 5.15402C2.03051 4.96169 2.26575 4.85996 2.51848 4.85996C2.82684 4.85996 3.14314 5.0062 3.40699 5.27164L7.72399 9.48056C7.77009 9.52506 7.83049 9.5489 7.89089 9.5489C7.95129 9.5489 8.01328 9.52506 8.05937 9.47897C8.15156 9.38678 8.15315 9.23737 8.06096 9.14359L2.87611 3.8284C2.6361 3.58839 2.49146 3.30069 2.46603 3.02095C2.44219 2.73643 2.54232 2.47258 2.7569 2.258C2.94923 2.06567 3.18447 1.96395 3.43719 1.96395C3.74555 1.96395 4.06185 2.11018 4.32571 2.37403L9.61387 7.53028C9.65997 7.57478 9.72036 7.59862 9.78076 7.59862C9.84116 7.59862 9.90315 7.57478 9.94925 7.52869C10.0414 7.4365 10.043 7.28709 9.95084 7.19331L6.11068 3.24665C5.86908 3.00505 5.72444 2.71895 5.7006 2.4392C5.67676 2.15469 5.77689 1.89083 5.99147 1.67625C6.1838 1.48393 6.41904 1.3822 6.67176 1.3822C6.98012 1.3822 7.29642 1.52843 7.56028 1.79388C8.96855 3.17671 12.645 6.79276 12.769 6.92628C13.241 7.25212 13.3364 6.75938 13.3603 6.4399C13.3873 6.06796 12.9613 4.76936 13.2093 3.6011C13.6257 2.04819 14.8257 2.30251 14.8528 2.31522C15.5108 2.62358 15.3852 3.08453 15.1516 4.01119L15.1277 4.19398C14.883 5.40515 16.5646 8.99418 16.6886 9.2628C17.3482 10.706 18.108 13.6323 15.5919 16.1484C12.8341 18.9061 9.41996 17.4931 8.37885 16.452Z" fill="url(#paint0_radial_3_2438)"/>
<path d="M11.9175 18C10.2263 18 8.78788 17.191 8.22044 16.6299C7.71022 16.2135 4.48995 13.1045 1.86732 10.5597C1.76082 10.4564 1.69884 10.3976 1.69248 10.3897C1.39525 10.0924 1.21087 9.78249 1.15842 9.49002C1.09802 9.15783 1.20133 8.85742 1.462 8.59515C1.70043 8.35673 1.99289 8.23117 2.31078 8.23117C2.68431 8.23117 3.05942 8.40283 3.36778 8.71278L6.00789 11.2496L1.78626 6.89125C1.29988 6.40487 1.0551 5.59901 1.67023 4.98548C1.90865 4.74706 2.20111 4.62149 2.519 4.62149C2.89253 4.62149 3.26764 4.79315 3.576 5.1031L7.88983 9.30883L2.70656 3.99524C2.42999 3.71867 2.25992 3.38012 2.22972 3.04315C2.19952 2.68393 2.3235 2.35491 2.58894 2.08947C2.82736 1.85105 3.11982 1.72548 3.43772 1.72548C3.80965 1.72548 4.18477 1.89556 4.49472 2.2055L9.7813 7.36014L5.94113 3.4135C5.66298 3.13534 5.4929 2.79678 5.46429 2.45982C5.43409 2.10219 5.55807 1.77317 5.82351 1.50773C6.06193 1.26931 6.3544 1.14374 6.67229 1.14374C7.04582 1.14374 7.42093 1.3154 7.72929 1.62535L8.8753 2.7491C10.9178 4.75183 12.6249 6.42871 12.8077 6.61627C12.8967 6.6878 13.0127 6.71482 13.062 6.69097C13.0938 6.67508 13.1287 6.60196 13.1224 6.44779C13.1128 6.17758 13.0747 5.8422 13.0349 5.48775C12.9555 4.77567 12.8728 4.03816 12.9761 3.55178C13.2018 2.70777 13.6453 2.35014 13.9759 2.19596C14.4305 1.98615 14.8708 2.05927 14.955 2.09901C15.7816 2.48684 15.6178 3.13534 15.3921 4.03498L15.3874 4.05723L15.3619 4.2432C15.1966 5.057 16.0454 7.3061 16.8942 9.13875L16.9069 9.16418C17.4743 10.404 18.4964 13.5845 15.7625 16.3184C14.5052 17.5725 13.1446 18 11.9175 18ZM2.31078 8.70801C2.12322 8.70801 1.9452 8.78589 1.79897 8.93212C1.64797 9.08312 1.59552 9.22935 1.62731 9.40419C1.66228 9.59652 1.80374 9.8254 2.02468 10.0479C2.02627 10.0495 2.08985 10.1115 2.19952 10.2164C5.92206 13.8293 8.16957 15.9766 8.5288 16.2659L8.54787 16.2834C9.42526 17.1608 12.6853 18.7185 15.4239 15.9798C17.9464 13.4573 16.9975 10.5121 16.4714 9.36128L16.4603 9.33744C15.9135 8.15805 14.6705 5.29701 14.8914 4.15578L14.928 3.91736C15.1728 2.9446 15.1871 2.74115 14.7722 2.54088C14.6498 2.51863 13.7725 2.41213 13.4371 3.66304C13.3528 4.062 13.4339 4.79156 13.5054 5.4353C13.5468 5.79928 13.5849 6.1442 13.5944 6.43189C13.6103 6.88489 13.3958 7.05814 13.2654 7.12172C13 7.25047 12.6837 7.14079 12.4866 6.97549L12.4659 6.95642C12.369 6.85151 10.0626 4.5897 8.53674 3.09242L7.38914 1.96549C6.99813 1.57289 6.49427 1.50773 6.15571 1.84628C5.99041 2.01159 5.9157 2.2055 5.93319 2.42008C5.95226 2.64419 6.07306 2.87785 6.27492 3.07971L10.123 7.02635C10.3042 7.21073 10.3042 7.51273 10.1199 7.69711C9.94343 7.87354 9.63189 7.87672 9.45069 7.70188L4.15934 2.54406C3.76833 2.15305 3.26288 2.08788 2.92591 2.42644C2.7606 2.59174 2.6859 2.78566 2.70338 3.00023C2.72404 3.22435 2.84484 3.45959 3.04512 3.65827L8.23156 8.97663C8.41435 9.16101 8.41276 9.463 8.22838 9.64738C8.05195 9.82381 7.74042 9.82699 7.55922 9.65215L3.24062 5.44165C2.84961 5.04747 2.34416 4.98389 2.00719 5.32244C1.59552 5.73412 1.81487 6.24433 2.1264 6.55746L6.34963 10.919C6.53083 11.1033 6.52924 11.4037 6.34486 11.5865C6.16684 11.7646 5.85848 11.7661 5.67728 11.5929L3.03399 9.05292C2.81147 8.82881 2.55556 8.70801 2.31078 8.70801Z" fill="#EDA600"/>
<path d="M12.3892 6.77209C11.5166 8.55389 11.6294 11.0478 12.9392 13.0489C13.087 13.3191 13.3397 13.1872 13.211 12.909C11.6294 9.52506 13.2873 7.08681 13.2873 7.08681L12.3892 6.77209Z" fill="#EDA600"/>
<path d="M8.95746 0.0898675C9.43748 -0.0357004 9.94929 -0.0245741 10.4468 0.091457C10.9411 0.210667 11.4354 0.461803 11.8026 0.871885C12.1618 1.27879 12.3828 1.77311 12.4575 2.29128C12.5274 2.80468 12.4622 3.33397 12.2191 3.77266C12.1904 3.27993 12.1046 2.82693 11.96 2.4089C11.8853 2.20068 11.7978 2.002 11.6914 1.81444C11.5864 1.62847 11.4625 1.44409 11.3305 1.29309C11.0619 0.983148 10.6979 0.741549 10.2894 0.553992C9.87935 0.360077 9.43271 0.217025 8.95746 0.0898675Z" fill="#B0BEC5"/>
<path d="M9.08972 1.59669C9.35516 1.42821 9.68736 1.39324 10.0005 1.44887C10.3168 1.50451 10.6188 1.66186 10.8572 1.87962C11.094 2.10056 11.2625 2.37871 11.3674 2.668C11.4183 2.81264 11.4437 2.96523 11.4676 3.11305C11.4755 3.26564 11.4755 3.41822 11.4517 3.57081C11.342 3.45478 11.2562 3.33875 11.1751 3.2259C11.0813 3.1194 11.0082 3.00655 10.924 2.90324C10.7587 2.6982 10.5981 2.51223 10.4249 2.34692C10.2469 2.18639 10.0593 2.04492 9.84154 1.92254C9.62537 1.79697 9.38218 1.69206 9.08972 1.59669Z" fill="#858585"/>
<path d="M0.00303796 11.668C0.227153 12.1067 0.460806 12.5136 0.732605 12.8728C1.00282 13.232 1.31276 13.5372 1.67357 13.7359C1.84841 13.8328 2.05663 13.9171 2.26009 13.9806C2.46513 14.0458 2.67812 14.0903 2.89746 14.1205C3.33616 14.1746 3.7971 14.165 4.28507 14.0903C3.90678 14.4193 3.40133 14.5942 2.88634 14.6323C2.36499 14.6673 1.8357 14.5544 1.36204 14.2874C0.885194 14.0156 0.535511 13.5833 0.316164 13.1239C0.0968168 12.6614 -0.0208041 12.1639 0.00303796 11.668Z" fill="#B0BEC5"/>
<path d="M1.50443 11.4813C1.65861 11.7483 1.8112 11.9629 1.97809 12.1504C2.1434 12.338 2.32142 12.4922 2.51533 12.632C2.71243 12.7671 2.92859 12.8864 3.16384 13.0056C3.28146 13.066 3.40703 13.1136 3.531 13.1836C3.65975 13.2392 3.79009 13.298 3.92678 13.3823C3.78214 13.4363 3.63432 13.4681 3.48332 13.4919C3.33391 13.4983 3.17973 13.5062 3.02714 13.4856C2.72196 13.4443 2.41679 13.3378 2.14975 13.1518C1.88749 12.9626 1.66973 12.7004 1.55052 12.4032C1.42972 12.1075 1.39476 11.7769 1.50443 11.4813Z" fill="#858585"/>
<defs>
<radialGradient id="paint0_radial_3_2438" cx="0" cy="0" r="1" gradientUnits="userSpaceOnUse" gradientTransform="translate(5.91775 5.41467) rotate(-45) scale(14.4654)">
<stop offset="0.3533" stop-color="#FFCA28"/>
<stop offset="0.8723" stop-color="#FFB300"/>
</radialGradient>
</defs>
</svg>
