<svg width="24" height="24" viewBox="0 0 24 24" fill="none" xmlns="http://www.w3.org/2000/svg">
<mask id="mask0_78_3986" style="mask-type:alpha" maskUnits="userSpaceOnUse" x="0" y="0" width="24" height="24">
<rect width="24" height="24" fill="#D9D9D9"/>
</mask>
<g mask="url(#mask0_78_3986)">
<path d="M7.11551 17.1152C6.86484 17.1152 6.65468 17.0305 6.48501 16.861C6.31551 16.6915 6.23076 16.4814 6.23076 16.2308V14.7308H18.6058L18.923 15.048V6H20.423C20.6737 6 20.8838 6.08475 21.0533 6.25425C21.2229 6.42392 21.3078 6.634 21.3078 6.8845V20.6538L17.7693 17.1152H7.11551ZM2.69226 16.2693V3.38475C2.69226 3.13408 2.77709 2.92392 2.94676 2.75425C3.11626 2.58475 3.32634 2.5 3.57701 2.5H16.0385C16.2892 2.5 16.4993 2.58475 16.6688 2.75425C16.8383 2.92392 16.923 3.13408 16.923 3.38475V11.8463C16.923 12.0968 16.8383 12.3068 16.6688 12.4765C16.4993 12.646 16.2892 12.7308 16.0385 12.7308H6.23076L2.69226 16.2693Z" fill="white"/>
</g>
</svg>
