<svg width="31" height="31" viewBox="0 0 31 31" fill="none" xmlns="http://www.w3.org/2000/svg">
<mask id="mask0_945_17" style="mask-type:alpha" maskUnits="userSpaceOnUse" x="0" y="0" width="31" height="31">
<rect x="0.5" y="0.5" width="30" height="30" fill="#D9D9D9"/>
</mask>
<g mask="url(#mask0_945_17)">
<path d="M6.125 24.2501V13.1923C6.125 12.8346 6.205 12.4957 6.365 12.1757C6.52521 11.8555 6.74646 11.5918 7.02875 11.3848L14.1444 6.02414C14.5392 5.72289 14.9904 5.57227 15.4981 5.57227C16.0058 5.57227 16.4583 5.72289 16.8556 6.02414L23.9713 11.3848C24.2535 11.5918 24.4748 11.8555 24.635 12.1757C24.795 12.4957 24.875 12.8346 24.875 13.1923V24.2501C24.875 24.7613 24.6903 25.2016 24.3209 25.571C23.9516 25.9404 23.5112 26.1251 23 26.1251H19.0097C18.6895 26.1251 18.4211 26.0167 18.2047 25.8001C17.988 25.5836 17.8797 25.3153 17.8797 24.9951V18.8895C17.8797 18.5695 17.7715 18.3011 17.555 18.0845C17.3385 17.868 17.0702 17.7598 16.75 17.7598H14.25C13.9298 17.7598 13.6615 17.868 13.445 18.0845C13.2285 18.3011 13.1203 18.5695 13.1203 18.8895V24.9951C13.1203 25.3153 13.012 25.5836 12.7953 25.8001C12.5789 26.0167 12.3105 26.1251 11.9903 26.1251H8C7.48875 26.1251 7.04844 25.9404 6.67906 25.571C6.30969 25.2016 6.125 24.7613 6.125 24.2501Z" fill="#3475F1"/>
</g>
</svg>
