<svg width="31" height="31" viewBox="0 0 31 31" fill="none" xmlns="http://www.w3.org/2000/svg">
<mask id="mask0_945_736" style="mask-type:alpha" maskUnits="userSpaceOnUse" x="0" y="0" width="31" height="31">
<rect x="0.5" y="0.5" width="30" height="30" fill="#D9D9D9"/>
</mask>
<g mask="url(#mask0_945_736)">
<path d="M7.58344 24.6666H11.9584V18.0001C11.9584 17.7049 12.0582 17.4575 12.2578 17.2579C12.4574 17.0583 12.7048 16.9585 13 16.9585H18C18.2952 16.9585 18.5426 17.0583 18.7422 17.2579C18.9418 17.4575 19.0416 17.7049 19.0416 18.0001V24.6666H23.4166V12.7916L15.5 6.85412L7.58344 12.7916V24.6666ZM5.5 24.6666V12.7916C5.5 12.4618 5.57375 12.1493 5.72125 11.8541C5.86896 11.5591 6.07302 11.3161 6.33344 11.1251L14.25 5.18756C14.6135 4.90985 15.0291 4.771 15.4966 4.771C15.9641 4.771 16.3819 4.90985 16.75 5.18756L24.6666 11.1251C24.927 11.3161 25.131 11.5591 25.2787 11.8541C25.4262 12.1493 25.5 12.4618 25.5 12.7916V24.6666C25.5 25.2395 25.296 25.7301 24.8881 26.1382C24.48 26.5461 23.9895 26.7501 23.4166 26.7501H18C17.7048 26.7501 17.4574 26.6503 17.2578 26.4507C17.0582 26.2509 16.9584 26.0035 16.9584 25.7085V19.0416H14.0416V25.7085C14.0416 26.0035 13.9418 26.2509 13.7422 26.4507C13.5426 26.6503 13.2952 26.7501 13 26.7501H7.58344C7.01052 26.7501 6.52 26.5461 6.11188 26.1382C5.70396 25.7301 5.5 25.2395 5.5 24.6666Z" fill="#858585"/>
</g>
</svg>
