<svg width="24" height="24" viewBox="0 0 24 24" fill="none" xmlns="http://www.w3.org/2000/svg">
<mask id="mask0_332_5820" style="mask-type:alpha" maskUnits="userSpaceOnUse" x="0" y="0" width="24" height="24">
<rect width="24" height="24" fill="#D9D9D9"/>
</mask>
<g mask="url(#mask0_332_5820)">
<path d="M13.1629 0.528334L21.8914 6.77744C22.2377 7.0194 22.5091 7.32744 22.7056 7.70157C22.9019 8.07546 23 8.47138 23 8.88932V21.3598C23 22.0859 22.7286 22.7075 22.1858 23.2245C21.643 23.7415 20.9904 24 20.2281 24H2.77188C2.00956 24 1.357 23.7415 0.8142 23.2245C0.2714 22.7075 0 22.0859 0 21.3598V8.88932C0 8.47138 0.098133 8.07546 0.2944 7.70157C0.490922 7.32744 0.762322 7.0194 1.1086 6.77744L9.8371 0.528334C10.3214 0.176111 10.8749 0 11.4977 0C12.1205 0 12.6756 0.176111 13.1629 0.528334ZM11.4981 15.6021C12.669 15.6021 13.6648 15.2118 14.4854 14.4312C15.3062 13.6505 15.7167 12.7027 15.7167 11.5876C15.7167 10.4723 15.3069 9.52379 14.4873 8.74218C13.6677 7.96032 12.6726 7.5694 11.5019 7.5694C10.331 7.5694 9.33519 7.95971 8.5146 8.74035C7.69376 9.52099 7.28333 10.4689 7.28333 11.5839C7.28333 12.6993 7.69312 13.6477 8.51268 14.4294C9.33225 15.2112 10.3274 15.6021 11.4981 15.6021ZM11.5 13.4114C10.9672 13.4114 10.5146 13.2339 10.1422 12.879C9.76963 12.5244 9.58333 12.0933 9.58333 11.5858C9.58333 11.0782 9.76963 10.6472 10.1422 10.2925C10.5146 9.93759 10.9672 9.76014 11.5 9.76014C12.0328 9.76014 12.4854 9.93759 12.8578 10.2925C13.2304 10.6472 13.4167 11.0782 13.4167 11.5858C13.4167 12.0933 13.2304 12.5244 12.8578 12.879C12.4854 13.2339 12.0328 13.4114 11.5 13.4114ZM11.4605 19.9836C10.2819 19.9836 9.13522 20.1381 8.02048 20.447C6.90575 20.7559 5.85209 21.21 4.85952 21.8092H18.0669C17.084 21.21 16.0319 20.7559 14.9105 20.447C13.7894 20.1381 12.6394 19.9836 11.4605 19.9836ZM2.3 8.88932V20.8545C3.60921 19.8676 5.04173 19.1106 6.59755 18.5834C8.15312 18.0564 9.77257 17.7929 11.4559 17.7929C13.1564 17.7929 14.7925 18.0541 16.3641 18.5764C17.9355 19.0988 19.3808 19.8534 20.7 20.8402V8.88932C20.7 8.81459 20.6828 8.7468 20.6483 8.68595C20.614 8.62509 20.5674 8.57118 20.5083 8.5242L11.7802 2.28933C11.7015 2.22361 11.6081 2.19075 11.5 2.19075C11.3919 2.19075 11.2985 2.22361 11.2198 2.28933L2.49167 8.5242C2.43263 8.57118 2.38599 8.62509 2.35175 8.68595C2.31725 8.7468 2.3 8.81459 2.3 8.88932Z" fill="#222222"/>
</g>
</svg>
