<svg width="19" height="25" viewBox="0 0 19 25" fill="none" xmlns="http://www.w3.org/2000/svg">
<path d="M2.24482 24.0106C1.62558 24.0086 1.09731 23.7894 0.66 23.3532C0.222899 22.9168 0.00537736 22.3917 0.00743517 21.7779L0.0461614 10.2263C0.0482192 9.61243 0.269257 9.08879 0.709274 8.65533C1.1495 8.22208 1.67923 8.00649 2.29847 8.00857L3.77899 8.01353L3.78725 5.55167C3.7924 4.01465 4.34048 2.70902 5.43149 1.63478C6.5225 0.560544 7.84329 0.0260245 9.39388 0.0312227C10.9445 0.036421 12.2616 0.579784 13.3454 1.66131C14.4292 2.74284 14.9685 4.05212 14.9634 5.58914L14.9551 8.051L16.4356 8.05596C17.0549 8.05804 17.5831 8.27717 18.0205 8.71337C18.4576 9.14976 18.6751 9.67487 18.673 10.2887L18.6343 21.8404C18.6322 22.4542 18.4112 22.9778 17.9712 23.4113C17.531 23.8445 17.0012 24.0601 16.382 24.058L2.24482 24.0106ZM2.25101 22.1643L16.3882 22.2116C16.4997 22.212 16.5914 22.1768 16.6633 22.1061C16.7351 22.0353 16.7712 21.9447 16.7716 21.8341L16.8103 10.2825C16.8107 10.1719 16.7752 10.081 16.7038 10.0098C16.6325 9.93853 16.541 9.90273 16.4294 9.90235L2.29228 9.85496C2.18072 9.85459 2.08902 9.88977 2.01718 9.96052C1.94533 10.0313 1.90922 10.1219 1.90885 10.2325L1.87012 21.7842C1.86975 21.8947 1.90525 21.9856 1.97662 22.0569C2.048 22.1281 2.13946 22.1639 2.25101 22.1643ZM9.33301 18.1874C9.93631 18.1895 10.4501 17.9817 10.8743 17.5642C11.2983 17.1465 11.5114 16.6386 11.5134 16.0406C11.5154 15.4426 11.3058 14.9333 10.8845 14.5127C10.4631 14.0924 9.95075 13.8812 9.34745 13.8792C8.74415 13.8772 8.23038 14.0849 7.80615 14.5024C7.38212 14.9201 7.1691 15.428 7.1671 16.026C7.16509 16.624 7.3747 17.1333 7.79592 17.5539C8.21734 17.9742 8.7297 18.1854 9.33301 18.1874ZM5.64168 8.01977L13.0924 8.04475L13.1007 5.58289C13.1041 4.55712 12.7449 3.684 12.0229 2.96353C11.3009 2.24306 10.4225 1.88109 9.38769 1.87762C8.35286 1.87415 7.47205 2.23022 6.74527 2.94583C6.01848 3.66145 5.65337 4.53214 5.64993 5.55792L5.64168 8.01977Z" fill="#222222"/>
</svg>
