<svg width="32" height="32" viewBox="0 0 32 32" fill="none" xmlns="http://www.w3.org/2000/svg">
<path d="M31.6927 12.8454C30.852 8.6871 28.3962 5.03201 24.8638 2.68208C21.3315 0.332147 17.0112 -0.5207 12.8508 0.310649C12.7845 0.323346 12.7182 0.337454 12.6533 0.352973C9.2879 1.07262 6.24425 2.85824 3.97416 5.44476C1.70407 8.03129 0.328567 11.2808 0.051825 14.7111C-0.224917 18.1413 0.611856 21.5693 2.43793 24.4863C4.26401 27.4032 6.98205 29.6536 10.1886 30.9035C12.2295 31.7029 14.4134 32.0722 16.6037 31.9883C17.5365 31.9275 18.4646 31.8097 19.3831 31.6356C23.4889 30.7428 27.0796 28.2724 29.3809 24.757C31.6822 21.2416 32.5099 16.9626 31.6856 12.8426L31.6927 12.8454ZM8.23033 6.3107C9.10928 5.28648 11.052 4.15221 13.5464 3.7713C16.8986 3.25213 20.159 3.82914 22.8001 5.54747C17.4784 5.70689 9.45494 6.6761 9.94309 11.1497C10.0107 11.7568 10.2189 12.3399 10.5512 12.8525C9.82411 12.7086 9.28423 12.5308 8.93152 12.3192C8.48335 12.0617 8.09724 11.7089 7.80054 11.2857C7.50383 10.8625 7.30377 10.3792 7.21452 9.87011C6.96198 8.60746 7.28506 7.41111 8.23033 6.3107ZM3.98369 12.6592C4.30038 13.3235 4.72091 13.9331 5.22946 14.465C6.16485 15.454 7.47694 16.055 9.02887 16.6419C10.8079 17.3176 26.0775 23.7917 4.7145 21.2974C3.44457 18.5969 3.18527 15.5304 3.98369 12.655V12.6592ZM25.018 24.0978C24.7101 24.7489 24.266 25.3262 23.7158 25.7908C23.4233 26.0499 23.111 26.2858 22.7818 26.4962C22.4743 26.6919 22.1553 26.8691 21.8266 27.0266C19.805 28.0946 17.5284 28.5857 15.2462 28.4461C12.964 28.3065 10.7642 27.5416 8.88778 26.2352C13.8779 26.2465 24.2476 25.6709 23.7016 20.6062C23.5987 19.6609 23.1641 18.8483 22.4926 18.1486C23.0548 18.3347 23.5773 18.6242 24.0332 19.0021C24.7281 19.6044 25.1961 20.4263 25.3594 21.3313C25.5465 22.268 25.4268 23.2401 25.018 24.1035V24.0978ZM28.332 17.913C27.9836 17.3049 27.8989 16.948 27.02 16.158C24.7344 14.1039 21.2355 13.7596 19.9784 13.4916C14.1643 12.1133 11.2397 8.55385 27.0707 10.2355C28.2982 12.595 28.7401 15.2848 28.332 17.913Z" fill="#3475F1"/>
</svg>
