<svg width="24" height="20" viewBox="0 0 24 20" fill="none" xmlns="http://www.w3.org/2000/svg">
<path d="M2.28347 19.4737C1.64537 19.4737 1.10526 19.2526 0.663158 18.8105C0.221053 18.3684 0 17.8283 0 17.1902V2.80978C0 2.17167 0.221053 1.63157 0.663158 1.18946C1.10526 0.747359 1.64537 0.526306 2.28347 0.526306H21.7165C22.3546 0.526306 22.8947 0.747359 23.3368 1.18946C23.7789 1.63157 24 2.17167 24 2.80978V17.1902C24 17.8283 23.7789 18.3684 23.3368 18.8105C22.8947 19.2526 22.3546 19.4737 21.7165 19.4737H2.28347ZM12 10.7045L1.89474 4.24283V17.1902C1.89474 17.3037 1.93116 17.3968 2.004 17.4697C2.07684 17.5425 2.17 17.5789 2.28347 17.5789H21.7165C21.83 17.5789 21.9232 17.5425 21.996 17.4697C22.0688 17.3968 22.1053 17.3037 22.1053 17.1902V4.24283L12 10.7045ZM12 8.73683L21.9111 2.42104H2.08895L12 8.73683ZM1.89474 4.24283V2.42104V17.1902C1.89474 17.3037 1.93116 17.3968 2.004 17.4697C2.07684 17.5425 2.17 17.5789 2.28347 17.5789H1.89474V4.24283Z" fill="#222222"/>
</svg>
