<svg width="31" height="31" viewBox="0 0 31 31" fill="none" xmlns="http://www.w3.org/2000/svg">
<mask id="mask0_945_963" style="mask-type:alpha" maskUnits="userSpaceOnUse" x="0" y="0" width="31" height="31">
<rect x="0.5" y="0.5" width="30" height="30" fill="#D9D9D9"/>
</mask>
<g mask="url(#mask0_945_963)">
<path d="M2.99957 28.0002V5.50024C2.99957 4.81274 3.24436 4.2242 3.73395 3.73462C4.22353 3.24504 4.81207 3.00024 5.49957 3.00024H25.4996C26.1871 3.00024 26.7756 3.24504 27.2652 3.73462C27.7548 4.2242 27.9996 4.81274 27.9996 5.50024V20.5002C27.9996 21.1877 27.7548 21.7763 27.2652 22.2659C26.7756 22.7555 26.1871 23.0002 25.4996 23.0002H7.99957L2.99957 28.0002ZM7.99957 18.0002H17.9996V15.5002H7.99957V18.0002ZM7.99957 14.2502H22.9996V11.7502H7.99957V14.2502ZM7.99957 10.5002H22.9996V8.00025H7.99957V10.5002Z" fill="#3475F1"/>
</g>
</svg>
