<svg width="31" height="31" viewBox="0 0 31 31" fill="none" xmlns="http://www.w3.org/2000/svg">
<mask id="mask0_945_21" style="mask-type:alpha" maskUnits="userSpaceOnUse" x="0" y="0" width="31" height="31">
<rect x="0.5" y="0.5" width="30" height="30" fill="#D9D9D9"/>
</mask>
<g mask="url(#mask0_945_21)">
<path d="M8.31293 17.6875H17.6879V15.8125H8.31293V17.6875ZM8.31293 13.9375H22.6879V12.0625H8.31293V13.9375ZM8.31293 10.1875H22.6879V8.3125H8.31293V10.1875ZM3.62543 26.7981V5.88469C3.62543 5.25323 3.84418 4.71875 4.28168 4.28125C4.71918 3.84375 5.25366 3.625 5.88511 3.625H25.1157C25.7472 3.625 26.2817 3.84375 26.7192 4.28125C27.1567 4.71875 27.3754 5.25323 27.3754 5.88469V20.1153C27.3754 20.7468 27.1567 21.2813 26.7192 21.7188C26.2817 22.1563 25.7472 22.375 25.1157 22.375H8.04855L3.62543 26.7981ZM7.25043 20.5H25.1157C25.212 20.5 25.3001 20.4599 25.3801 20.3797C25.4603 20.2997 25.5004 20.2116 25.5004 20.1153V5.88469C25.5004 5.78844 25.4603 5.70031 25.3801 5.62031C25.3001 5.5401 25.212 5.5 25.1157 5.5H5.88511C5.78886 5.5 5.70074 5.5401 5.62074 5.62031C5.54053 5.70031 5.50043 5.78844 5.50043 5.88469V22.2309L7.25043 20.5Z" fill="#858585"/>
</g>
</svg>
