<svg width="24" height="24" viewBox="0 0 24 24" fill="none" xmlns="http://www.w3.org/2000/svg">
<mask id="mask0_332_4870" style="mask-type:alpha" maskUnits="userSpaceOnUse" x="0" y="0" width="24" height="24">
<rect width="24" height="24" fill="#D9D9D9"/>
</mask>
<g mask="url(#mask0_332_4870)">
<path d="M11.25 22.1998V20.4691C9.16672 20.2549 7.41288 19.4356 5.98855 18.0113C4.56422 16.587 3.74497 14.8331 3.5308 12.7498H1.80005V11.2498H3.5308C3.74497 9.16647 4.56422 7.41264 5.98855 5.9883C7.41288 4.56397 9.16672 3.74472 11.25 3.53055V1.7998H12.75V3.53055C14.8334 3.74472 16.5872 4.56397 18.0115 5.9883C19.4359 7.41264 20.2551 9.16647 20.4693 11.2498H22.2V12.7498H20.4693C20.2551 14.8331 19.4359 16.587 18.0115 18.0113C16.5872 19.4356 14.8334 20.2549 12.75 20.4691V22.1998H11.25ZM12 18.9998C13.9334 18.9998 15.5834 18.3165 16.95 16.9498C18.3167 15.5831 19 13.9331 19 11.9998C19 10.0665 18.3167 8.41647 16.95 7.0498C15.5834 5.68314 13.9334 4.9998 12 4.9998C10.0667 4.9998 8.41672 5.68314 7.05005 7.0498C5.68338 8.41647 5.00005 10.0665 5.00005 11.9998C5.00005 13.9331 5.68338 15.5831 7.05005 16.9498C8.41672 18.3165 10.0667 18.9998 12 18.9998ZM12 15.4998C11.0375 15.4998 10.2136 15.1571 9.5283 14.4716C8.8428 13.7862 8.50005 12.9623 8.50005 11.9998C8.50005 11.0373 8.8428 10.2134 9.5283 9.52805C10.2136 8.84255 11.0375 8.4998 12 8.4998C12.9625 8.4998 13.7865 8.84255 14.4718 9.52805C15.1573 10.2134 15.5 11.0373 15.5 11.9998C15.5 12.9623 15.1573 13.7862 14.4718 14.4716C13.7865 15.1571 12.9625 15.4998 12 15.4998ZM12 13.9998C12.55 13.9998 13.0209 13.804 13.4125 13.4123C13.8042 13.0206 14 12.5498 14 11.9998C14 11.4498 13.8042 10.979 13.4125 10.5873C13.0209 10.1956 12.55 9.9998 12 9.9998C11.45 9.9998 10.9792 10.1956 10.5875 10.5873C10.1959 10.979 10 11.4498 10 11.9998C10 12.5498 10.1959 13.0206 10.5875 13.4123C10.9792 13.804 11.45 13.9998 12 13.9998Z" fill="#1C1B1F"/>
</g>
</svg>
