<svg width="24" height="24" viewBox="0 0 24 24" fill="none" xmlns="http://www.w3.org/2000/svg">
<mask id="mask0_109_3411" style="mask-type:alpha" maskUnits="userSpaceOnUse" x="0" y="0" width="24" height="24">
<rect width="24" height="24" fill="#D9D9D9"/>
</mask>
<g mask="url(#mask0_109_3411)">
<path d="M11.25 19.5691V12.4306L5 8.81135V15.7769C5 15.828 5.01283 15.8761 5.0385 15.9211C5.06417 15.9659 5.10258 16.0044 5.15375 16.0364L11.25 19.5691ZM12.75 19.5691L18.8462 16.0364C18.8974 16.0044 18.9358 15.9659 18.9615 15.9211C18.9872 15.8761 19 15.828 19 15.7769V8.81135L12.75 12.4306V19.5691ZM11.0963 21.2056L4.404 17.3536C4.11933 17.1896 3.8975 16.9704 3.7385 16.6961C3.5795 16.4216 3.5 16.1203 3.5 15.7921V8.2076C3.5 7.87944 3.5795 7.5781 3.7385 7.3036C3.8975 7.02927 4.11933 6.8101 4.404 6.6461L11.0963 2.7941C11.3808 2.62994 11.682 2.54785 12 2.54785C12.318 2.54785 12.6193 2.62994 12.9038 2.7941L19.596 6.6461C19.8807 6.8101 20.1025 7.02927 20.2615 7.3036C20.4205 7.5781 20.5 7.87944 20.5 8.2076V15.7921C20.5 16.1203 20.4205 16.4216 20.2615 16.6961C20.1025 16.9704 19.8807 17.1896 19.596 17.3536L12.9038 21.2056C12.6193 21.3698 12.318 21.4519 12 21.4519C11.682 21.4519 11.3808 21.3698 11.0963 21.2056ZM15.8558 8.89985L18.175 7.5691L12.1538 4.08635C12.1026 4.05435 12.0513 4.03835 12 4.03835C11.9487 4.03835 11.8974 4.05435 11.8463 4.08635L9.675 5.33635L15.8558 8.89985ZM12 11.1384L14.325 9.7921L8.15 6.22285L5.825 7.5691L12 11.1384Z" fill="#222222"/>
</g>
</svg>
