<svg width="31" height="31" viewBox="0 0 31 31" fill="none" xmlns="http://www.w3.org/2000/svg">
<mask id="mask0_945_709" style="mask-type:alpha" maskUnits="userSpaceOnUse" x="0" y="0" width="31" height="31">
<rect x="0.5" y="0.5" width="30" height="30" fill="#D9D9D9"/>
</mask>
<g mask="url(#mask0_945_709)">
<path d="M15.5 21.8941C16.9344 21.8941 18.1503 21.3953 19.1478 20.3978C20.1453 19.4003 20.6441 18.1844 20.6441 16.75C20.6441 15.3156 20.1453 14.0997 19.1478 13.1022C18.1503 12.1047 16.9344 11.6059 15.5 11.6059C14.0656 11.6059 12.8497 12.1047 11.8522 13.1022C10.8547 14.0997 10.3559 15.3156 10.3559 16.75C10.3559 18.1844 10.8547 19.4003 11.8522 20.3978C12.8497 21.3953 14.0656 21.8941 15.5 21.8941ZM15.5 20.0194C14.5769 20.0194 13.8013 19.7052 13.1731 19.0769C12.5448 18.4487 12.2306 17.6731 12.2306 16.75C12.2306 15.8269 12.5448 15.0512 13.1731 14.4231C13.8013 13.7948 14.5769 13.4806 15.5 13.4806C16.4231 13.4806 17.1988 13.7948 17.8269 14.4231C18.4552 15.0512 18.7694 15.8269 18.7694 16.75C18.7694 17.6731 18.4552 18.4487 17.8269 19.0769C17.1988 19.7052 16.4231 20.0194 15.5 20.0194ZM5.88469 26.125C5.25323 26.125 4.71875 25.9062 4.28125 25.4688C3.84375 25.0312 3.625 24.4968 3.625 23.8653V9.63469C3.625 9.00323 3.84375 8.46875 4.28125 8.03125C4.71875 7.59375 5.25323 7.375 5.88469 7.375H9.70187L12.0144 4.875H18.9856L21.2981 7.375H25.1153C25.7468 7.375 26.2812 7.59375 26.7188 8.03125C27.1562 8.46875 27.375 9.00323 27.375 9.63469V23.8653C27.375 24.4968 27.1562 25.0312 26.7188 25.4688C26.2812 25.9062 25.7468 26.125 25.1153 26.125H5.88469Z" fill="#3475F1"/>
</g>
</svg>
