<svg width="31" height="31" viewBox="0 0 31 31" fill="none" xmlns="http://www.w3.org/2000/svg">
<mask id="mask0_945_1381" style="mask-type:alpha" maskUnits="userSpaceOnUse" x="0" y="0" width="31" height="31">
<rect x="0.5" y="0.5" width="30" height="30" fill="#D9D9D9"/>
</mask>
<g mask="url(#mask0_945_1381)">
<path d="M15.5004 21.8943C16.9348 21.8943 18.1507 21.3956 19.1482 20.3981C20.1457 19.4006 20.6445 18.1846 20.6445 16.7502C20.6445 15.3159 20.1457 14.0999 19.1482 13.1024C18.1507 12.1049 16.9348 11.6062 15.5004 11.6062C14.0661 11.6062 12.8501 12.1049 11.8526 13.1024C10.8551 14.0999 10.3564 15.3159 10.3564 16.7502C10.3564 18.1846 10.8551 19.4006 11.8526 20.3981C12.8501 21.3956 14.0661 21.8943 15.5004 21.8943ZM15.5004 20.0196C14.5773 20.0196 13.8017 19.7055 13.1736 19.0771C12.5452 18.449 12.2311 17.6734 12.2311 16.7502C12.2311 15.8271 12.5452 15.0515 13.1736 14.4234C13.8017 13.795 14.5773 13.4809 15.5004 13.4809C16.4235 13.4809 17.1992 13.795 17.8273 14.4234C18.4556 15.0515 18.7698 15.8271 18.7698 16.7502C18.7698 17.6734 18.4556 18.449 17.8273 19.0771C17.1992 19.7055 16.4235 20.0196 15.5004 20.0196ZM5.88511 26.1252C5.25366 26.1252 4.71918 25.9065 4.28168 25.469C3.84418 25.0315 3.62543 24.497 3.62543 23.8656V9.63493C3.62543 9.00347 3.84418 8.46899 4.28168 8.03149C4.71918 7.59399 5.25366 7.37524 5.88511 7.37524H9.7023L12.0148 4.87524H18.986L21.2985 7.37524H25.1157C25.7472 7.37524 26.2817 7.59399 26.7192 8.03149C27.1567 8.46899 27.3754 9.00347 27.3754 9.63493V23.8656C27.3754 24.497 27.1567 25.0315 26.7192 25.469C26.2817 25.9065 25.7472 26.1252 25.1157 26.1252H5.88511ZM5.88511 24.2502H25.1157C25.228 24.2502 25.3202 24.2142 25.3923 24.1421C25.4644 24.07 25.5004 23.9779 25.5004 23.8656V9.63493C25.5004 9.52264 25.4644 9.43045 25.3923 9.35837C25.3202 9.28629 25.228 9.25025 25.1157 9.25025H20.462L18.1686 6.75024H12.8323L10.5389 9.25025H5.88511C5.77282 9.25025 5.68064 9.28629 5.60855 9.35837C5.53647 9.43045 5.50043 9.52264 5.50043 9.63493V23.8656C5.50043 23.9779 5.53647 24.07 5.60855 24.1421C5.68064 24.2142 5.77282 24.2502 5.88511 24.2502Z" fill="#858585"/>
</g>
</svg>
