<svg width="30" height="30" viewBox="0 0 30 30" fill="none" xmlns="http://www.w3.org/2000/svg">
<mask id="mask0_945_1051" style="mask-type:alpha" maskUnits="userSpaceOnUse" x="0" y="0" width="30" height="30">
<rect width="30" height="30" fill="#D9D9D9"/>
</mask>
<g mask="url(#mask0_945_1051)">
<path d="M15 14.6154C13.7969 14.6154 12.7669 14.187 11.9102 13.3303C11.0534 12.4735 10.625 11.4436 10.625 10.2404C10.625 9.03732 11.0534 8.00738 11.9102 7.15063C12.7669 6.29386 13.7969 5.86548 15 5.86548C16.2031 5.86548 17.233 6.29386 18.0898 7.15063C18.9466 8.00738 19.3749 9.03732 19.3749 10.2404C19.3749 11.4436 18.9466 12.4735 18.0898 13.3303C17.233 14.187 16.2031 14.6154 15 14.6154ZM5.625 22.2356V21.3558C5.625 20.7436 5.79127 20.1767 6.12381 19.6551C6.45633 19.1335 6.90064 18.7324 7.45672 18.452C8.6923 17.8462 9.9387 17.3919 11.1959 17.089C12.4531 16.7861 13.7211 16.6347 15 16.6347C16.2788 16.6347 17.5468 16.7861 18.804 17.089C20.0612 17.3919 21.3076 17.8462 22.5432 18.452C23.0993 18.7324 23.5436 19.1335 23.8761 19.6551C24.2087 20.1767 24.3749 20.7436 24.3749 21.3558V22.2356C24.3749 22.7628 24.1902 23.2111 23.8208 23.5805C23.4515 23.9499 23.0032 24.1346 22.4759 24.1346H7.524C6.99677 24.1346 6.54847 23.9499 6.17909 23.5805C5.8097 23.2111 5.625 22.7628 5.625 22.2356ZM7.49997 22.2596H22.5V21.3558C22.5 21.1026 22.4266 20.8682 22.28 20.6527C22.1334 20.4371 21.9343 20.2612 21.6827 20.125C20.6057 19.5946 19.5076 19.1927 18.3883 18.9195C17.2691 18.6463 16.1396 18.5096 15 18.5096C13.8603 18.5096 12.7309 18.6463 11.6116 18.9195C10.4923 19.1927 9.3942 19.5946 8.31728 20.125C8.06568 20.2612 7.86656 20.4371 7.71994 20.6527C7.57329 20.8682 7.49997 21.1026 7.49997 21.3558V22.2596ZM15 12.7404C15.6875 12.7404 16.276 12.4957 16.7656 12.0061C17.2552 11.5165 17.5 10.9279 17.5 10.2404C17.5 9.55295 17.2552 8.96441 16.7656 8.47482C16.276 7.98524 15.6875 7.74045 15 7.74045C14.3125 7.74045 13.7239 7.98524 13.2343 8.47482C12.7448 8.96441 12.5 9.55295 12.5 10.2404C12.5 10.9279 12.7448 11.5165 13.2343 12.0061C13.7239 12.4957 14.3125 12.7404 15 12.7404Z" fill="#858585"/>
</g>
</svg>
