<svg width="30" height="30" viewBox="0 0 30 30" fill="none" xmlns="http://www.w3.org/2000/svg">
<mask id="mask0_945_812" style="mask-type:alpha" maskUnits="userSpaceOnUse" x="0" y="0" width="30" height="30">
<rect width="30" height="30" fill="#D9D9D9"/>
</mask>
<g mask="url(#mask0_945_812)">
<path d="M15 14.6152C13.7933 14.6152 12.7625 14.1877 11.9075 13.3327C11.0525 12.4779 10.625 11.4471 10.625 10.2402C10.625 9.03357 11.0525 8.00273 11.9075 7.14773C12.7625 6.29273 13.7933 5.86523 15 5.86523C16.2067 5.86523 17.2375 6.29273 18.0925 7.14773C18.9475 8.00273 19.375 9.03357 19.375 10.2402C19.375 11.4471 18.9475 12.4779 18.0925 13.3327C17.2375 14.1877 16.2067 14.6152 15 14.6152ZM5.625 22.2355V21.3555C5.625 20.7435 5.79125 20.1766 6.12375 19.6549C6.45625 19.1333 6.90062 18.7322 7.45687 18.4518C8.69229 17.8462 9.93865 17.3919 11.1959 17.089C12.4532 16.7861 13.7212 16.6346 15 16.6346C16.2788 16.6346 17.5468 16.7861 18.8041 17.089C20.0614 17.3919 21.3077 17.8462 22.5431 18.4518C23.0994 18.7322 23.5437 19.1333 23.8762 19.6549C24.2087 20.1766 24.375 20.7435 24.375 21.3555V22.2355C24.375 22.7626 24.1903 23.211 23.8209 23.5805C23.4516 23.9499 23.0032 24.1346 22.4759 24.1346H7.52406C6.99677 24.1346 6.54844 23.9499 6.17906 23.5805C5.80969 23.211 5.625 22.7626 5.625 22.2355Z" fill="#3475F1"/>
</g>
</svg>
