<svg width="24" height="24" viewBox="0 0 24 24" fill="none" xmlns="http://www.w3.org/2000/svg">
<mask id="mask0_282_6754" style="mask-type:alpha" maskUnits="userSpaceOnUse" x="0" y="0" width="24" height="24">
<rect width="24" height="24" fill="#D9D9D9"/>
</mask>
<g mask="url(#mask0_282_6754)">
<path d="M9.29607 13.9615L11.9998 12.3212L14.7036 13.9615L13.9863 10.8865L16.3843 8.81925L13.2286 8.55375L11.9998 5.654L10.7711 8.55375L7.61532 8.81925L10.0133 10.8865L9.29607 13.9615ZM2.49982 21.0385V4.30775C2.49982 3.80258 2.67482 3.375 3.02482 3.025C3.37482 2.675 3.8024 2.5 4.30757 2.5H19.6921C20.1972 2.5 20.6248 2.675 20.9748 3.025C21.3248 3.375 21.4998 3.80258 21.4998 4.30775V15.6923C21.4998 16.1974 21.3248 16.625 20.9748 16.975C20.6248 17.325 20.1972 17.5 19.6921 17.5H6.03832L2.49982 21.0385ZM5.39982 16H19.6921C19.7691 16 19.8396 15.9679 19.9036 15.9038C19.9677 15.8398 19.9998 15.7692 19.9998 15.6923V4.30775C19.9998 4.23075 19.9677 4.16025 19.9036 4.09625C19.8396 4.03208 19.7691 4 19.6921 4H4.30757C4.23057 4 4.16007 4.03208 4.09607 4.09625C4.0319 4.16025 3.99982 4.23075 3.99982 4.30775V17.3848L5.39982 16Z" fill="#222222"/>
</g>
</svg>
