<svg width="24" height="24" viewBox="0 0 24 24" fill="none" xmlns="http://www.w3.org/2000/svg">
<mask id="mask0_332_4892" style="mask-type:alpha" maskUnits="userSpaceOnUse" x="0" y="0" width="24" height="24">
<rect width="24" height="24" fill="#D9D9D9"/>
</mask>
<g mask="url(#mask0_332_4892)">
<path d="M10.95 15.2033L16.2538 9.89959L15.1845 8.83034L10.95 13.0651L8.83075 10.9458L7.7615 12.0151L10.95 15.2033ZM12 21.4803C9.83717 20.8905 8.0465 19.6174 6.628 17.6611C5.20933 15.7048 4.5 13.5176 4.5 11.0996V5.34584L12 2.53809L19.5 5.34584V11.0996C19.5 13.5176 18.7907 15.7048 17.372 17.6611C15.9535 19.6174 14.1628 20.8905 12 21.4803ZM12 19.8996C13.7333 19.3496 15.1667 18.2496 16.3 16.5996C17.4333 14.9496 18 13.1163 18 11.0996V6.37459L12 4.13409L6 6.37459V11.0996C6 13.1163 6.56667 14.9496 7.7 16.5996C8.83333 18.2496 10.2667 19.3496 12 19.8996Z" fill="#222222"/>
</g>
</svg>
